<svg xmlns="http://www.w3.org/2000/svg" width="201.814" height="400" viewBox="0 0 201.814 400">
  <g id="Group_257" data-name="Group 257" opacity="0.05">
    <path id="Path_2583" data-name="Path 2583" d="M611.128,390.356a10.16,10.16,0,0,0-10.145-10.14H525.644a10.142,10.142,0,1,0,0,20.284h75.339A10.152,10.152,0,0,0,611.128,390.356Z" transform="translate(-409.315 -198.128)" fill="#fc6327"/>
    <path id="Path_2585" data-name="Path 2585" d="M502.483,502.427h0a10.142,10.142,0,0,0,10.14-10.14v0l.018-75.348a10.146,10.146,0,0,0-20.289,0l-.014,75.344A10.161,10.161,0,0,0,502.483,502.427Z" transform="translate(-492.229 -102.427)" fill="#fc6327"/>
    <path id="Path_2587" data-name="Path 2587" d="M572.842,366.248a10.145,10.145,0,0,0-15.81-12.709l-47.191,58.737a10.148,10.148,0,1,0,15.833,12.7Z" transform="translate(-437.57 -306.599)" fill="#fc6327"/>
    <path id="Path_2588" data-name="Path 2588" d="M512.6,425.814l.233-75.348a10.146,10.146,0,0,0-20.289-.055l-.233,75.344a10.146,10.146,0,0,0,20.289.06Z" transform="translate(-492.315 -340.458)" fill="#fc6327"/>
    <path id="Path_2589" data-name="Path 2589" d="M575.866,463.407a10.144,10.144,0,1,1-15.81,12.714l-47.214-58.742a10.15,10.15,0,1,1,15.832-12.7Z" transform="translate(-426.827 -124.173)" fill="#fc6327"/>
  </g>
</svg>
