<svg width="500px" height="500px" viewBox="0 0 512 512" xmlns="http://www.w3.org/2000/svg" version="1.1">
  <g id="g">
    <rect id="rect" x="0" y="0" fill="#248bcc" width="100%" height="100%"></rect>
    <path transform="scale(.7)  translate(110, 100)" fill="#fff" d="
      M 107 75
      L 156 165
      Q 121 175 102 202
      Q 84 229 84 272
      Q 84 308 100 329
      Q 117 350 146 350
      Q 185 350 212 276
      Q 221 251 227 237
      Q 259 161 291 131
      Q 324 101 370 101
      Q 434 101 473 150
      Q 513 200 513 282
      Q 513 337 492 376
      Q 472 416 435 434
      L 382 357
      Q 404 348 417 327
      Q 431 306 431 278
      Q 431 247 416 228
      Q 401 209 377 209
      Q 340 209 309 293
      Q 300 320 294 334
      Q 268 400 235 428
      Q 202 456 153 456
      Q 82 456 42 405
      Q 2 353 2 263
      Q 2 193 28 147
      Q 54 101 107 75
      Z
    "/>
  </g>
</svg>
