<svg xmlns="http://www.w3.org/2000/svg" version="1.0" width="169.000000pt" height="139.000000pt" viewBox="-3 -3 175 145" preserveAspectRatio="xMidYMid meet"><g id="deeditor_bgCarrier" stroke-width="0">
    <rect id="dee_c_e" x="-3" y="-3" width="175" height="145" rx="0" fill="#248bcc" strokewidth="0"/>
  </g>

<g transform="translate(0.000000,139.000000) scale(0.100000,-0.100000)" fill="#ffffff" stroke="none">
<path d="M430 680 l0 -531 113 3 112 3 0 525 0 525 -112 3 -113 3 0 -531z" fill="#ffffff"/>
<path d="M748 1204 c-8 -13 -7 -169 0 -181 4 -6 59 -12 128 -15 143 -5 176 -19 212 -88 24 -49 27 -90 11 -153 -23 -91 -72 -117 -232 -122 -61 -2 -114 -8 -119 -13 -5 -5 -8 -47 -6 -93 l3 -84 145 0 c189 0 271 22 355 97 69 60 98 146 96 283 -3 190 -76 294 -241 346 -71 22 -343 40 -352 23z" fill="#ffffff"/>
</g>
</svg>