<svg width="500px" height="500px" viewBox="0 0 512 512" xmlns="http://www.w3.org/2000/svg" version="1.1">
 <g id="g">
 <rect id="rect" x="0" y="0" fill="#248bcc" width="100%" height="100%"></rect>
    <path d="M0 1435 l0 -1435 2060 0 2060 0 0 1435 0 1435 -2060 0 -2060 0 0 -1435z m1101 190 c84 -44 49 -165 -56 -194 -51 -14 -55 -14 -55 3 0 8 15 17 36 21 73 13 109 90 64 135 -15 15 -33 20 -70 20 l-50 0 0 -165 c0 -140 -2 -165 -15 -165 -13 0 -15 27 -15 180 l0 180 65 0 c40 0 78 -6 96 -15z m269 -32 c35 -24 40 -33 40 -77 0 -26 -8 -50 -24 -71 l-25 -32 50 -57 c28 -31 57 -56 65 -56 8 0 14 -7 14 -16 0 -13 -6 -15 -27 -9 -32 8 -72 42 -109 97 -22 31 -33 38 -60 38 l-34 0 0 -65 c0 -51 -3 -65 -15 -65 -13 0 -15 25 -15 165 l0 165 58 0 c38 0 66 -6 82 -17z m397 -11 c41 -29 63 -79 63 -145 0 -90 -59 -156 -147 -164 -118 -12 -202 88 -179 212 7 38 57 101 90 116 38 16 139 5 173 -19z m181 -102 c29 -69 57 -128 61 -132 4 -5 31 51 61 123 50 118 71 152 86 136 7 -7 -132 -331 -144 -335 -5 -1 -39 67 -76 152 -87 204 -82 189 -60 184 13 -2 34 -40 72 -128z m416 -26 c36 -86 66 -161 66 -166 0 -5 -8 -8 -17 -6 -10 2 -26 25 -38 56 l-20 53 -70 -3 -69 -3 -21 -52 c-13 -36 -26 -53 -37 -53 -17 0 -17 2 0 43 86 213 119 287 128 287 7 0 41 -70 78 -156z m296 141 c0 -12 -13 -15 -55 -15 l-55 0 0 -150 c0 -127 -2 -150 -15 -150 -13 0 -15 23 -15 150 l0 150 -55 0 c-42 0 -55 3 -55 15 0 13 21 15 125 15 104 0 125 -2 125 -15z m200 -142 c36 -86 67 -160 68 -165 2 -4 -5 -8 -16 -8 -14 0 -25 14 -39 53 l-20 52 -70 3 -70 3 -23 -56 c-12 -30 -29 -55 -36 -55 -20 0 -18 5 22 100 19 47 49 118 66 158 16 39 35 72 41 72 7 0 41 -71 77 -157z m270 142 c47 -24 57 -97 21 -146 -12 -16 -21 -32 -21 -36 0 -17 91 -112 110 -115 14 -2 17 -7 11 -17 -16 -25 -64 2 -116 67 -42 53 -54 62 -82 62 l-33 0 0 -65 c0 -51 -3 -65 -15 -65 -13 0 -15 25 -15 165 l0 165 55 0 c31 0 69 -7 85 -15z" fill="#248bcc"/>
    <path d="M1260 1511 c0 -72 6 -81 50 -81 25 0 70 56 70 86 0 37 -34 64 -80 64 l-40 0 0 -69z" fill="#248bcc"/>
    <path d="M1594 1561 c-34 -21 -64 -75 -64 -115 0 -106 111 -177 199 -128 86 47 94 179 16 240 -36 28 -108 30 -151 3z" fill="#248bcc"/>
    <path d="M2258 1486 l-26 -66 54 0 c30 0 54 3 53 8 0 4 -13 33 -28 66 l-27 59 -26 -67z" fill="#248bcc"/>
    <path d="M2758 1497 c-34 -83 -36 -77 21 -77 28 0 51 4 51 9 0 15 -42 111 -49 111 -3 0 -14 -19 -23 -43z" fill="#248bcc"/>
    <path d="M3020 1511 c0 -72 6 -81 51 -81 31 0 69 48 69 86 0 41 -30 64 -82 64 l-38 0 0 -69z" fill="#248bcc"/>
  </g>
</svg>
