<?xml version="1.0" standalone="no"?>
<!DOCTYPE svg PUBLIC "-//W3C//DTD SVG 20010904//EN"
 "http://www.w3.org/TR/2001/REC-SVG-20010904/DTD/svg10.dtd">
<svg version="1.0" xmlns="http://www.w3.org/2000/svg"
 width="400.000000pt" height="400.000000pt" viewBox="0 0 400.000000 400.000000"
 preserveAspectRatio="xMidYMid meet">

<g transform="translate(0.000000,400.000000) scale(0.100000,-0.100000)"
fill="#fff" stroke="none">
<path d="M1746 3979 c-677 -92 -1256 -512 -1546 -1122 -256 -538 -258 -1175
-4 -1706 293 -614 847 -1025 1519 -1127 147 -22 423 -22 570 0 800 122 1442
695 1645 1470 179 686 -19 1415 -522 1918 -286 286 -650 475 -1068 554 -101
19 -488 28 -594 13z m554 -54 c546 -89 1012 -387 1319 -843 157 -235 262 -501
308 -787 11 -67 16 -165 16 -295 1 -209 -12 -317 -57 -492 -143 -547 -522
-1010 -1032 -1259 -539 -263 -1169 -263 -1708 0 -521 254 -904 731 -1039 1291
-41 171 -52 271 -50 475 1 275 41 478 140 720 275 674 903 1139 1628 1205 121
11 358 3 475 -15z"/>
<path d="M1780 3845 c-183 -23 -305 -54 -472 -120 -231 -91 -425 -222 -618
-415 -286 -285 -452 -603 -521 -995 -185 -1051 567 -2049 1633 -2164 914 -100
1775 498 1999 1388 208 822 -156 1665 -901 2086 -331 187 -740 267 -1120 220z
m708 -476 c639 -206 823 -266 855 -278 29 -11 37 -47 15 -69 -9 -9 -324 -12
-1358 -12 -1034 0 -1349 3 -1358 12 -18 18 -15 56 6 67 9 5 103 36 207 69 188
60 959 307 1065 342 30 10 65 18 78 19 13 1 233 -67 490 -150z m732 -544 l0
-95 -1220 0 -1220 0 0 95 0 95 1220 0 1220 0 0 -95z m-2005 -200 c0 -16 -8
-21 -38 -23 -73 -6 -72 5 -75 -521 -3 -515 3 -608 43 -677 44 -75 128 -97 196
-51 46 30 96 132 109 222 13 95 13 909 0 957 -12 41 -42 68 -77 68 -18 0 -23
6 -23 26 l0 26 438 -4 c495 -5 509 -7 588 -80 106 -98 141 -297 74 -428 -24
-46 -85 -102 -138 -126 -49 -21 -52 -30 -13 -39 46 -10 136 -72 164 -112 51
-75 61 -111 61 -223 0 -85 -4 -116 -22 -161 -29 -72 -85 -137 -151 -172 -87
-48 -158 -57 -449 -57 l-263 0 3 23 c2 17 11 23 42 27 28 4 45 13 60 33 21 28
21 37 24 595 2 390 0 579 -8 605 -16 54 -44 69 -125 65 -61 -3 -70 -6 -89 -31
-20 -28 -21 -42 -28 -493 -4 -256 -12 -497 -18 -537 -20 -129 -89 -245 -174
-290 -62 -33 -185 -31 -246 3 -58 33 -115 109 -142 190 -21 62 -22 86 -28 580
-4 411 -8 520 -19 540 -17 31 -30 40 -58 40 -25 0 -37 15 -29 36 5 12 37 14
208 12 195 -3 203 -4 203 -23z m1980 -167 c0 -105 -4 -189 -9 -190 -5 -2 -20
40 -33 92 -24 101 -60 165 -103 187 -14 7 -51 13 -83 13 l-58 0 3 -606 3 -606
33 -29 c18 -16 43 -29 57 -29 18 0 25 -5 25 -20 0 -19 -7 -20 -225 -20 -218 0
-225 1 -225 20 0 15 7 20 26 20 36 0 61 16 79 50 13 25 15 113 15 625 l0 595
-37 0 c-64 0 -116 -20 -155 -60 l-38 -37 -24 41 c-32 54 -82 101 -128 121 -21
8 -38 18 -38 20 0 3 206 4 458 3 l457 -3 0 -187z m-85 -1348 l0 -50 -1110 0
-1110 0 0 50 0 50 1110 0 1110 0 0 -50z m150 -225 l0 -95 -1260 0 -1260 0 0
95 0 95 1260 0 1260 0 0 -95z"/>
<path d="M1975 3425 c-5 -2 -190 -61 -410 -131 -220 -70 -452 -144 -515 -165
l-115 -37 1060 0 1060 0 -130 43 c-71 24 -206 68 -300 98 -622 201 -623 201
-650 192z"/>
<path d="M2000 2290 l0 -270 28 0 c78 0 147 43 184 114 26 49 37 206 19 272
-25 92 -100 154 -188 154 l-43 0 0 -270z"/>
<path d="M2000 1661 l0 -282 26 -26 c22 -22 31 -24 67 -19 63 10 112 50 144
115 24 48 29 71 31 158 7 208 -58 310 -210 328 l-58 7 0 -281z"/>
</g>
</svg>
